{"title":"Harry Potter And The Deathly Hallows Part 2","uid":6820877,"size":1484654812,"categoryP":"video","categoryS":"movies","magnet":"?xt=urn:btih:a2f780bfccb27f55b957b74bae75d7af6854331b&amp;dn=Harry+Potter+And+The+Deathly+Hallows+Part+2&amp;tr=udp%3A%2F%2Ftracker.openbittorrent.com%3A80&amp;tr=udp%3A%2F%2Fopen.demonii.com%3A1337&amp;tr=udp%3A%2F%2Ftracker.coppersurfer.tk%3A6969&amp;tr=udp%3A%2F%2Fexodus.desync.com%3A6969","seeders":0,"leechers":0,"uploader":"lilreaper22395","files":1,"time":1321382557,"description":"Format                           : AVI\nFormat/Info                      : Audio Video Interleave\nFile size                        : 1.38 GiB\nDuration                         : 2h 10mn\nOverall bit rate                 : 1 518 Kbps\nWriting library                  : VirtualDub build 32842/release\n\nVideo\nID                               : 0\nFormat                           : MPEG-4 Visual\nFormat profile                   : Advanced Simple@L5\nFormat settings, BVOP            : 4\nFormat settings, QPel            : No\nFormat settings, GMC             : No warppoints\nFormat settings, Matrix          : Default (MPEG)\nMuxing mode                      : Packed bitstream\nCodec ID                         : XVID\nCodec ID/Hint                    : XviD\nDuration                         : 2h 10mn\nBit rate                         : 1 316 Kbps\nWidth                            : 720 pixels\nHeight                           : 304 pixels\nDisplay aspect ratio             : 2.35:1\nFrame rate                       : 23.976 fps\nColor space                      : YUV\nChroma subsampling               : 4:2:0\nBit depth                        : 8 bits\nScan type                        : Progressive\nCompression mode                 : Lossy\nBits/(Pixel*Frame)               : 0.251\nStream size                      : 1.20 GiB (87%)\nWriting library                  : XviD 62\n\nAudio\nID                               : 1\nFormat                           : AC-3\nFormat/Info                      : Audio Coding 3\nMode extension                   : CM (complete main)\nCodec ID                         : 2000\nDuration                         : 2h 10mn\nBit rate mode                    : Constant\nBit rate                         : 192 Kbps\nChannel(s)                       : 6 channels\nChannel positions                : Front: L C R, Side: L R, LFE\nSampling rate                    : 48.0 KHz\nBit depth                        : 16 bits\nCompression mode                 : Lossy\nStream size                      : 179 MiB (13%)\nAlignment                        : Aligned on interleaves\nInterleave, duration             : 42 ms (1.00 video frame)\nInterleave, preload duration     : 512 ms\n\nStoryline:The final chapter begins as Harry, Ron, and Hermione continue their quest of finding and destroying the Dark Lord\\'s three remaining Horcruxes, the magical items responsible for his immortality. But as the mystical Deathly Hallows are uncovered, and Voldemort finds out about their mission, the biggest battle begins and life as they know it will never be the same again.","torrent":{"xt":"urn:btih:a2f780bfccb27f55b957b74bae75d7af6854331b","amp;dn":"Harry+Potter+And+The+Deathly+Hallows+Part+2","amp;tr":["udp%3A%2F%2Ftracker.openbittorrent.com%3A80","udp%3A%2F%2Fopen.demonii.com%3A1337","udp%3A%2F%2Ftracker.coppersurfer.tk%3A6969","udp%3A%2F%2Fexodus.desync.com%3A6969"],"infoHash":"a2f780bfccb27f55b957b74bae75d7af6854331b","infoHashBuffer":{"type":"Buffer","data":[162,247,128,191,204,178,127,85,185,87,183,75,174,117,215,175,104,84,51,27]},"announce":[],"urlList":[]}}